<svg xmlns="http://www.w3.org/2000/svg" width="19.96" height="23.82" viewBox="0 0 19.96 23.82">
  <metadata><?xpacket begin="﻿" id="W5M0MpCehiHzreSzNTczkc9d"?>
<x:xmpmeta xmlns:x="adobe:ns:meta/" x:xmptk="Adobe XMP Core 5.6-c138 79.159824, 2016/09/14-01:09:01        ">
   <rdf:RDF xmlns:rdf="http://www.w3.org/1999/02/22-rdf-syntax-ns#">
      <rdf:Description rdf:about=""/>
   </rdf:RDF>
</x:xmpmeta>
                                                                                                    
                                                                                                    
                                                                                                    
                                                                                                    
                                                                                                    
                                                                                                    
                                                                                                    
                                                                                                    
                                                                                                    
                                                                                                    
                                                                                                    
                                                                                                    
                                                                                                    
                                                                                                    
                                                                                                    
                                                                                                    
                                                                                                    
                                                                                                    
                                                                                                    
                                                                                                    
                           
<?xpacket end="w"?></metadata>
<defs>
    <style>
      .cls-1 {
        fill: #e94859;
        fill-rule: evenodd;
      }
    </style>
  </defs>
  <path id="Shape_1_copy_2" data-name="Shape 1 copy 2" class="cls-1" d="M1658.26,9478.06a2.129,2.129,0,0,0-3.27-.41l-1.71,1.37c-0.11-.08-0.23-0.17-0.34-0.24-0.17-.12-0.32-0.22-0.45-0.33a17.22,17.22,0,0,1-3.51-4.24,10.044,10.044,0,0,1-1.05-2.29c0.44-.32.85-0.66,1.25-1,0.15-.12.3-0.25,0.45-0.37a2.339,2.339,0,0,0,.41-3.44l-1.15-1.54c-0.13-.17-0.26-0.35-0.39-0.52-0.25-.35-0.52-0.71-0.79-1.05a2.3,2.3,0,0,0-1.53-.94,2.335,2.335,0,0,0-1.72.53c-0.01,0-.01,0-0.01.01l-1.84,1.5a3.729,3.729,0,0,0-1.32,2.18,9.292,9.292,0,0,0,.18,3.78,21.954,21.954,0,0,0,2.93,6.83,23.04,23.04,0,0,0,6.81,7.08,11.668,11.668,0,0,0,4.08,1.83c0.1,0.02.2,0.04,0.3,0.05a3.564,3.564,0,0,0,2.92-.88,0.053,0.053,0,0,1,.02-0.03,10.754,10.754,0,0,1,.95-0.79c0.23-.18.47-0.37,0.7-0.56a2.518,2.518,0,0,0,.93-1.64,2.463,2.463,0,0,0-.54-1.8Zm1.1,5.47c-0.01,0-.01.01,0,0-0.22.19-.43,0.36-0.66,0.54a11.944,11.944,0,0,0-1.05.88,2.281,2.281,0,0,1-1.9.56l-0.22-.03a10.3,10.3,0,0,1-3.61-1.65,21.965,21.965,0,0,1-6.42-6.66,20.8,20.8,0,0,1-2.75-6.42,7.44,7.44,0,0,1-.17-3.19,2.346,2.346,0,0,1,.84-1.4l1.84-1.49a1.074,1.074,0,0,1,.77-0.26,1.006,1.006,0,0,1,.66.44l0.02,0.02c0.26,0.32.5,0.65,0.76,1,0.13,0.18.26,0.36,0.39,0.55l1.16,1.52a0.973,0.973,0,0,1-.19,1.54c-0.15.13-.3,0.26-0.46,0.38-0.46.38-.89,0.73-1.35,1.06-0.01.01-.02,0.01-0.03,0.02a1.042,1.042,0,0,0-.38,1.1,0.075,0.075,0,0,0,.01.05,11,11,0,0,0,1.24,2.82v0.01a17.961,17.961,0,0,0,3.8,4.57,4.894,4.894,0,0,0,.55.41c0.16,0.11.31,0.22,0.44,0.33,0.02,0.01.04,0.03,0.06,0.04a0.971,0.971,0,0,0,1.23-.07l1.84-1.49a1.134,1.134,0,0,1,.78-0.29,0.976,0.976,0,0,1,.64.46c0.01,0,.01,0,0.01.01l2.33,3.08A1.018,1.018,0,0,1,1659.36,9483.53Z" transform="translate(-1641.16 -9463.06)"/>
</svg>
